<?xml version="1.0" standalone="no"?>
<!DOCTYPE svg PUBLIC "-//W3C//DTD SVG 20010904//EN"
 "http://www.w3.org/TR/2001/REC-SVG-20010904/DTD/svg10.dtd">
<svg version="1.0" xmlns="http://www.w3.org/2000/svg"
 width="54.000000pt" height="53.000000pt" viewBox="0 0 54.000000 53.000000"
 preserveAspectRatio="xMidYMid meet">

<g transform="translate(0.000000,53.000000) scale(0.100000,-0.100000)"
fill="#000000" stroke="none">
<path d="M48 507 c-15 -12 -32 -35 -38 -50 -5 -16 -10 -105 -10 -198 0 -261
-2 -259 262 -259 102 0 198 4 212 10 14 5 35 24 46 42 18 30 20 51 20 206 0
276 4 272 -270 272 -187 0 -196 -1 -222 -23z m437 -33 c25 -26 25 -30 25 -201
0 -176 -5 -204 -39 -230 -17 -13 -364 -19 -396 -7 -37 14 -45 57 -45 229 0
168 9 215 42 228 7 3 98 6 201 6 l188 1 24 -26z"/>
<path d="M297 403 c-4 -3 -22 -6 -39 -5 -32 1 -34 -1 -98 -131 -35 -73 -66
-135 -68 -138 -3 -6 88 8 94 14 1 1 21 40 44 86 l42 84 19 -29 c24 -36 24 -46
-1 -94 -23 -45 -28 -44 82 -27 l77 12 -49 85 c-27 47 -57 100 -66 118 -18 32
-25 37 -37 25z"/>
</g>
</svg>
