<?xml version="1.0" standalone="no"?>
<!DOCTYPE svg PUBLIC "-//W3C//DTD SVG 20010904//EN"
 "http://www.w3.org/TR/2001/REC-SVG-20010904/DTD/svg10.dtd">
<svg version="1.0" xmlns="http://www.w3.org/2000/svg"
 width="228.000000pt" height="119.000000pt" viewBox="0 0 228.000000 119.000000"
 preserveAspectRatio="xMidYMid meet">

<g transform="translate(0.000000,119.000000) scale(0.100000,-0.100000)"
fill="#000000" stroke="none">
<path d="M962 937 c-50 -28 -57 -52 -60 -211 -5 -197 1 -232 45 -273 l34 -33
181 0 c269 0 270 1 276 228 5 196 -1 237 -40 274 l-30 28 -192 0 c-134 -1
-198 -4 -214 -13z m422 -36 l26 -24 0 -184 c0 -113 -4 -192 -11 -205 -20 -37
-69 -48 -221 -48 -79 0 -160 5 -180 10 -64 18 -68 31 -68 240 0 181 1 187 23
207 12 11 29 23 37 26 8 4 95 5 192 4 172 -2 177 -3 202 -26z"/>
<path d="M1142 823 c-18 -4 -37 -33 -90 -138 -36 -74 -64 -136 -61 -139 3 -3
25 -2 50 2 43 7 45 9 88 91 l43 83 18 -28 c18 -27 18 -28 -6 -76 -24 -47 -24
-48 -4 -48 26 0 164 21 169 26 4 4 -58 117 -102 187 -31 48 -41 52 -105 40z"/>
<path d="M1207 354 c-14 -15 -6 -34 14 -34 14 0 19 5 17 17 -3 18 -20 27 -31
17z"/>
<path d="M797 343 c-4 -3 -7 -15 -7 -25 0 -15 -5 -18 -20 -13 -29 9 -74 -38
-64 -68 12 -39 25 -47 75 -47 l49 0 0 80 c0 60 -3 80 -13 80 -8 0 -17 -3 -20
-7z m-9 -92 c4 -28 -17 -45 -35 -29 -14 11 -17 40 -6 52 14 14 38 0 41 -23z"/>
<path d="M308 265 c-25 -71 -25 -75 -7 -75 10 0 19 5 19 10 0 14 46 13 70 -2
30 -19 35 -2 15 55 -26 74 -34 87 -53 87 -12 0 -25 -21 -44 -75z m50 -24 c-15
-6 -20 7 -12 31 l8 23 6 -25 c3 -14 2 -27 -2 -29z"/>
<path d="M1416 321 c-22 -24 -8 -57 30 -71 38 -15 30 -32 -12 -24 -34 6 -36 6
-25 -15 8 -15 21 -21 45 -21 63 0 76 54 19 80 -18 8 -33 21 -33 28 0 14 16 16
25 2 10 -15 45 -12 45 5 0 34 -67 46 -94 16z"/>
<path d="M462 294 c-34 -24 -28 -84 11 -102 24 -12 31 -11 53 2 13 9 24 21 24
26 0 13 -37 13 -45 0 -9 -15 -35 8 -35 31 0 26 18 33 46 18 31 -16 42 -5 19
21 -22 24 -43 25 -73 4z"/>
<path d="M579 289 c-26 -26 -24 -55 6 -84 25 -26 40 -31 49 -16 3 4 17 6 31 3
26 -4 26 -4 23 54 l-3 58 -43 2 c-32 2 -49 -3 -63 -17z m69 -42 c3 -23 0 -27
-22 -27 -21 0 -26 5 -26 23 0 13 3 27 7 31 15 14 38 0 41 -27z"/>
<path d="M872 294 c-25 -17 -31 -74 -9 -92 27 -21 54 -22 78 -3 27 22 18 41
-11 23 -11 -6 -26 -9 -35 -6 -28 11 -15 24 25 24 33 0 40 3 40 19 0 20 -34 51
-55 51 -6 0 -21 -7 -33 -16z m53 -24 c4 -6 -5 -10 -20 -10 -15 0 -24 4 -20 10
3 6 12 10 20 10 8 0 17 -4 20 -10z"/>
<path d="M980 249 c0 -52 2 -59 19 -59 16 0 20 8 23 43 2 29 8 42 18 42 10 0
16 -13 18 -42 3 -34 7 -43 22 -43 15 0 19 9 22 43 2 29 8 42 18 42 11 0 16
-13 18 -48 3 -39 6 -48 20 -45 27 5 29 89 2 113 -17 15 -24 16 -46 6 -16 -7
-31 -8 -38 -2 -6 5 -30 9 -53 9 l-43 1 0 -60z"/>
<path d="M1207 304 c-4 -4 -7 -31 -7 -61 0 -47 2 -53 20 -53 19 0 21 5 18 57
-3 52 -14 73 -31 57z"/>
<path d="M1273 284 c-27 -27 -29 -42 -8 -72 13 -18 25 -21 65 -21 l50 2 0 57
0 57 -42 0 c-30 0 -48 -6 -65 -23z m65 -33 c4 -28 -17 -45 -35 -29 -14 11 -17
40 -6 52 14 14 38 0 41 -23z"/>
<path d="M1530 220 c0 -83 1 -90 20 -90 16 0 20 7 20 31 0 27 3 31 21 26 25
-7 69 32 69 61 0 37 -25 55 -79 59 l-51 3 0 -90z m88 31 c4 -26 -13 -42 -35
-34 -14 5 -18 45 -6 57 14 14 38 0 41 -23z"/>
<path d="M1691 294 c-24 -17 -28 -61 -8 -88 8 -11 28 -18 62 -19 l50 -2 3 62
3 61 -45 0 c-24 0 -53 -6 -65 -14z m57 -23 c21 -13 10 -46 -16 -49 -17 -3 -22
1 -22 21 0 35 13 45 38 28z"/>
<path d="M1843 300 c-52 -21 -31 -110 25 -110 27 0 52 15 52 32 0 5 -16 6 -35
2 -33 -6 -35 -4 -35 19 0 30 17 44 33 28 13 -13 47 -15 47 -2 0 12 -40 41 -55
40 -5 0 -20 -4 -32 -9z"/>
<path d="M1957 292 c-51 -56 16 -140 74 -93 28 23 18 41 -13 22 -17 -11 -23
-10 -36 3 -15 15 -12 16 31 16 53 0 61 16 27 50 -25 25 -62 26 -83 2z m58 -22
c3 -5 -3 -10 -14 -10 -12 0 -21 5 -21 10 0 6 6 10 14 10 8 0 18 -4 21 -10z"/>
</g>
</svg>
