<?xml version="1.0" standalone="no"?>
<!DOCTYPE svg PUBLIC "-//W3C//DTD SVG 20010904//EN"
 "http://www.w3.org/TR/2001/REC-SVG-20010904/DTD/svg10.dtd">
<svg version="1.0" xmlns="http://www.w3.org/2000/svg"
 width="229.000000pt" height="129.000000pt" viewBox="0 0 229.000000 129.000000"
 preserveAspectRatio="xMidYMid meet">

<g transform="translate(0.000000,129.000000) scale(0.100000,-0.100000)"
fill="#000000" stroke="none">
<path d="M882 844 c-46 -32 -52 -61 -52 -249 0 -268 -3 -265 262 -265 102 0
198 4 212 10 14 5 35 24 46 42 18 30 20 51 20 211 0 272 5 267 -270 267 -161
0 -199 -3 -218 -16z m413 -20 c37 -14 45 -57 45 -229 0 -167 -5 -196 -39 -222
-17 -13 -364 -19 -396 -7 -37 14 -45 57 -45 229 0 168 9 215 42 228 19 8 373
8 393 1z"/>
<path d="M1120 730 c-8 -6 -26 -8 -40 -5 -24 5 -29 -3 -93 -130 -37 -74 -67
-137 -67 -139 0 -4 92 12 96 17 1 1 21 40 44 86 l42 85 19 -25 c10 -13 19 -33
19 -44 0 -13 10 -3 29 30 21 38 25 52 16 60 -7 6 -19 25 -29 43 -19 36 -16 35
-36 22z"/>
</g>
</svg>
